<svg width="207" height="18" viewBox="0 0 207 18" fill="none" xmlns="http://www.w3.org/2000/svg">
<path d="M0 15.8489H193C193 15.8489 199.021 14.6608 202 12.3489C203.309 11.3331 203.999 10.6687 205 9.34847C205.951 8.09424 206 7.23317 206 5.73317C206 4.23317 205 1.34892 202 1.34892C199 1.34892 198 4.23317 198 4.23317C198 4.23317 197 1.84669 196 1.34892C195 0.851144 192.035 0.688564 190.5 2.23013C188.534 4.20503 188.923 7.49107 191 9.34847C196 13.8188 195.397 13.2835 195 13.2305L202 17.3485" stroke="#F5F5F5" stroke-width="1.2"/>
</svg>
